<svg width="16" height="16" viewBox="0 0 16 16" fill="none" xmlns="http://www.w3.org/2000/svg">
<path d="M7.0275 4.57163C7.70578 3.22475 9.44818 2.13245 10.9184 2.13245H15.5774L14.3486 4.57163L11.1368 4.68878C10.2383 4.72137 9.42704 5.2367 9.01478 6.03655L6.08408 11.7288H3.42202L7.0275 4.57163Z" fill="url(#paint0_linear_6336_3227)"/>
<path d="M1.65233 2.13245L7.30849 2.13509L6.07968 4.57427H0.422607L1.65233 2.13245Z" fill="url(#paint1_linear_6336_3227)"/>
<path d="M13.9847 6.58877L11.7974 6.5923L10.5677 9.03412L12.0274 9.04204C12.2159 9.03942 12.3401 9.23674 12.2555 9.40499L10.0075 13.8675H12.6695L15.2822 8.65623C15.7623 7.69783 15.0559 6.57206 13.9838 6.58877H13.9847Z" fill="url(#paint2_linear_6336_3227)"/>
<defs>
<linearGradient id="paint0_linear_6336_3227" x1="10.7536" y1="9.61166" x2="3.85268" y2="1.1109" gradientUnits="userSpaceOnUse">
<stop offset="0.01" stop-color="#2157F5"/>
<stop offset="0.37" stop-color="#258DFF"/>
<stop offset="1" stop-color="#86FFBB"/>
</linearGradient>
<linearGradient id="paint1_linear_6336_3227" x1="22.4404" y1="39.0142" x2="-13.6158" y2="22.7426" gradientUnits="userSpaceOnUse">
<stop offset="0.01" stop-color="#2157F5"/>
<stop offset="0.37" stop-color="#258DFF"/>
<stop offset="1" stop-color="#86FFBB"/>
</linearGradient>
<linearGradient id="paint2_linear_6336_3227" x1="14.2567" y1="9.53005" x2="5.76695" y2="0.312167" gradientUnits="userSpaceOnUse">
<stop offset="0.01" stop-color="#2157F5"/>
<stop offset="0.37" stop-color="#258DFF"/>
<stop offset="1" stop-color="#86FFBB"/>
</linearGradient>
</defs>
</svg>
